<svg xmlns="http://www.w3.org/2000/svg" width="14" height="22" fill="none"><path fill="currentColor" d="M7 3.328c1.323 0 2.399 1.055 2.399 2.351 0 1.293-1.076 2.348-2.399 2.348S4.601 6.972 4.601 5.679c0-1.296 1.076-2.351 2.399-2.351Zm0 8.027c3.196 0 5.794-2.547 5.794-5.676C12.794 2.547 10.196 0 7 0 3.804 0 1.21 2.547 1.21 5.68c0 3.128 2.594 5.675 5.79 5.675Zm2.343 4.633a11.044 11.044 0 0 0 3.363-1.368 1.644 1.644 0 0 0 .534-2.292 1.715 1.715 0 0 0-2.343-.524 7.486 7.486 0 0 1-7.798 0 1.71 1.71 0 0 0-2.339.524 1.644 1.644 0 0 0 .534 2.292 11.044 11.044 0 0 0 3.363 1.368l-3.24 3.171a1.641 1.641 0 0 0 0 2.352 1.727 1.727 0 0 0 2.403 0L7 18.394l3.184 3.117a1.715 1.715 0 0 0 2.399 0 1.641 1.641 0 0 0 0-2.352l-3.24-3.171Z"/></svg>