<svg xmlns="http://www.w3.org/2000/svg" width="20" height="22" fill="none"><path fill="currentColor" d="M11.945.5c-.641 0-1.243.342-1.629.834-.386.493-.599 1.093-.754 1.726-.246 1.018-.322 2.147-.34 3.165-1.803.126-3.435.686-4.79 1.553-.55-.485-1.213-.755-1.848-.748-.724.007-1.41.335-1.921 1.007-.976 1.284-.864 3.384.267 4.631-.07.385-.122.78-.122 1.18C.808 18.077 4.924 21.5 10 21.5c5.076 0 9.192-3.427 9.192-7.652 0-.4-.052-.795-.122-1.18 1.13-1.247 1.243-3.347.267-4.631-.51-.672-1.197-1-1.92-1.007-.636-.007-1.298.263-1.849.748-1.35-.863-2.972-1.424-4.766-1.553.025-.939.089-1.913.268-2.647.112-.46.246-.795.389-.978.143-.183.246-.259.486-.259.52 0 .587.176.9.604.158.216.34.486.632.748.292.263.724.49 1.192.49V2.34c-.131 0-.155-.004-.243-.086-.089-.083-.21-.273-.39-.518C13.678 1.244 12.982.5 11.947.5Zm5.058.173c-1.21 0-2.188 1.157-2.188 2.589 0 1.43.978 2.589 2.188 2.589 1.21 0 2.189-1.158 2.189-2.59 0-1.43-.98-2.588-2.189-2.588Zm0 .92c.778 0 1.41.748 1.41 1.669 0 .92-.632 1.668-1.41 1.668-.778 0-1.41-.748-1.41-1.668 0-.92.632-1.669 1.41-1.669ZM10 7.663c4.307 0 7.951 2.837 7.951 6.185 0 3.351-3.644 6.185-7.951 6.185-4.307 0-7.951-2.834-7.951-6.185 0-3.348 3.644-6.185 7.951-6.185Zm-7.392.834c.216.004.44.061.656.173-.78.701-1.4 1.507-1.823 2.416-.292-.712-.213-1.6.146-2.07a1.241 1.241 0 0 1 1.02-.519Zm14.784 0c.398-.003.76.173 1.021.518.36.471.438 1.36.146 2.071-.422-.91-1.042-1.715-1.823-2.416a1.49 1.49 0 0 1 .656-.173ZM6.888 10.8c-.779 0-1.41.748-1.41 1.668 0 .92.631 1.669 1.41 1.669.778 0 1.41-.748 1.41-1.669 0-.92-.632-1.668-1.41-1.668Zm6.225 0c-.779 0-1.41.748-1.41 1.668 0 .92.631 1.669 1.41 1.669.778 0 1.41-.748 1.41-1.669 0-.92-.632-1.668-1.41-1.668Zm-6.98 5.667c.496 1.212 2.028 2.387 3.867 2.387s3.395-1.175 3.89-2.387c-.9.687-2.319 1.15-3.89 1.15-1.571 0-2.967-.463-3.866-1.15Z"/></svg>